<svg xmlns="http://www.w3.org/2000/svg" viewBox="0 0 64 64"><title>64-12</title><g id="File"><path d="M53,59V5a1,1,0,0,0-2,0V58H12a1,1,0,0,0,0,2H52A1,1,0,0,0,53,59Z" style="fill:#1b1a1e"/><path d="M56,8a1,1,0,0,0-1,1V62H16a1,1,0,0,0,0,2H56a1,1,0,0,0,1-1V9A1,1,0,0,0,56,8Z" style="fill:#1b1a1e"/><path d="M39.707,55.707l9-9A1.0923,1.0923,0,0,0,49,46V1a1,1,0,0,0-1-1H8A1,1,0,0,0,7,1V55a1,1,0,0,0,1,1H39A1.0041,1.0041,0,0,0,39.707,55.707ZM40,52.5859V47h5.5859ZM9,2H47V45H39a1,1,0,0,0-1,1v8H9Z" style="fill:#1b1a1e"/></g></svg>